<?xml version="1.0" encoding="utf-8"?>
<!-- Generator: Adobe Illustrator 23.0.3, SVG Export Plug-In . SVG Version: 6.00 Build 0)  -->
<svg version="1.1" id="Layer_1" xmlns="http://www.w3.org/2000/svg" xmlns:xlink="http://www.w3.org/1999/xlink" x="0px" y="0px"
	 width="120px" height="40px" viewBox="0 0 120 40" style="enable-background:new 0 0 120 40;" xml:space="preserve">
<style type="text/css">
	.st0{fill:#FFFFFF;}
</style>
<g>
	<g>
		<path class="st0" d="M99.9,0.2c-3.8-0.9-7.7,1.5-8.6,5.3c-0.9,3.8,3.8,15,3.8,15s9.2-8,10.1-11.8S103.7,1.1,99.9,0.2z M102.1,6.8
			c-0.3,0.1-0.5-0.1-0.8,0c-0.2,0.9-0.4,1.8-0.6,2.7c-0.1,0.7-0.4,0.9-0.9,0.8c-0.2,0-2.1-0.4-2.3-0.5c-0.7-0.2-1.3-0.3-2-0.4
			C95,9.2,94.9,8.9,95,8.2c0.2-0.9,0.4-1.8,0.6-2.7c-0.2-0.2-0.6-0.1-0.7-0.4c0-0.2,0.2-0.2,0.3-0.3c1.1-0.6,2.2-1.2,3.4-1.8
			c0.4-0.2,0.8-0.2,1,0.2c0.8,1,1.6,2.1,2.5,3.2C102.1,6.5,102.2,6.6,102.1,6.8z"/>
		<path class="st0" d="M9,24.6v3.2H6.3v6.1c0,1.2,0,1.9,0.1,2.1c0.1,0.2,0.2,0.4,0.4,0.5c0.2,0.1,0.4,0.2,0.7,0.2
			c0.4,0,0.9-0.1,1.6-0.4l0.3,3.1c-0.9,0.4-2,0.6-3.1,0.6c-0.7,0-1.4-0.1-1.9-0.4c-0.6-0.2-1-0.6-1.3-0.9c-0.3-0.4-0.5-0.9-0.6-1.5
			c-0.1-0.5-0.1-1.4-0.1-2.8v-6.5H0.5v-3.2h1.8v-5.3h4v5.3H9z"/>
		<path class="st0" d="M21.7,39.7v-2.2c-0.5,0.8-1.3,1.4-2.2,1.9c-0.9,0.5-1.8,0.7-2.8,0.7c-1,0-1.9-0.2-2.7-0.7
			c-0.8-0.4-1.4-1.1-1.7-1.9c-0.4-0.8-0.5-1.9-0.5-3.3v-9.5h4v6.9c0,2.1,0.1,3.4,0.2,3.9c0.1,0.5,0.4,0.9,0.8,1.1
			c0.4,0.3,0.9,0.4,1.5,0.4c0.7,0,1.3-0.2,1.8-0.6c0.5-0.4,0.9-0.8,1.1-1.4c0.2-0.5,0.3-1.9,0.3-4v-6.3h4v15H21.7z"/>
		<path class="st0" d="M42.6,29.1l-3.9,0.7c-0.1-0.8-0.4-1.4-0.9-1.8c-0.5-0.4-1.1-0.6-1.8-0.6c-1,0-1.8,0.3-2.4,1
			c-0.6,0.7-0.9,1.8-0.9,3.4c0,1.8,0.3,3,0.9,3.8c0.6,0.7,1.4,1.1,2.4,1.1c0.8,0,1.4-0.2,1.9-0.6c0.5-0.4,0.8-1.2,1-2.2l3.9,0.7
			c-0.4,1.8-1.2,3.1-2.3,4.1c-1.1,0.9-2.7,1.4-4.6,1.4c-2.2,0-3.9-0.7-5.3-2.1c-1.3-1.4-2-3.3-2-5.8c0-2.5,0.7-4.4,2-5.8
			c1.3-1.4,3.1-2.1,5.3-2.1c1.8,0,3.3,0.4,4.4,1.2C41.3,26.3,42.1,27.5,42.6,29.1L42.6,29.1z"/>
		<path class="st0" d="M57.4,37.6c-0.1-0.6-0.2-1.6-0.2-2.9l0-4.6c0-1.7-0.2-2.9-0.5-3.6c-0.3-0.6-1-1.2-1.8-1.6
			c-0.9-0.4-2.2-0.6-4-0.6c-2,0-3.4,0.3-4.4,1c-1,0.7-1.7,1.8-2.1,3.2l3.6,0.6c0.2-0.7,0.6-1.2,1-1.5c0.4-0.3,0.9-0.4,1.6-0.4
			c1,0,1.8,0.2,2.1,0.5c0.4,0.3,0.6,0.9,0.6,1.6v0.4c-0.7,0.3-2,0.6-3.9,1c-1.4,0.3-2.4,0.6-3.2,0.9c-0.7,0.4-1.3,0.9-1.7,1.5
			C44.2,34,44,34.7,44,35.6c0,1.3,0.4,2.3,1.3,3.2c0.9,0.8,2.1,1.3,3.7,1.3c0.9,0,1.7-0.2,2.5-0.5c0.8-0.3,1.5-0.8,2.2-1.5
			c0,0.1,0.1,0.2,0.1,0.5c0.1,0.5,0.3,0.9,0.4,1.2h3.9C57.8,39,57.5,38.3,57.4,37.6z M53.4,33.2c0,1,0,1.6-0.2,1.9
			c-0.2,0.5-0.5,1-0.9,1.3c-0.7,0.5-1.3,0.7-2.1,0.7c-0.6,0-1.2-0.2-1.6-0.6c-0.4-0.4-0.6-0.9-0.6-1.4s0.3-1,0.8-1.4
			c0.3-0.2,1.1-0.5,2.2-0.7c1.1-0.2,1.9-0.4,2.4-0.6V33.2z"/>
		<path class="st0" d="M74.9,39.7h-4V32c0-1.6-0.1-2.7-0.3-3.1c-0.2-0.5-0.4-0.8-0.8-1.1c-0.4-0.3-0.8-0.4-1.4-0.4
			c-0.7,0-1.3,0.2-1.8,0.6c-0.5,0.4-0.9,0.9-1.1,1.5c-0.2,0.6-0.3,1.8-0.3,3.4v6.8h-4v-15h3.7v2.2c1.3-1.7,3-2.5,4.9-2.5
			c0.9,0,1.7,0.2,2.4,0.5c0.7,0.3,1.3,0.7,1.6,1.2c0.4,0.5,0.6,1,0.8,1.7c0.1,0.6,0.2,1.5,0.2,2.7V39.7z"/>
		<path class="st0" d="M85.3,24.6v3.2h-2.7v6.1c0,1.2,0,1.9,0.1,2.1c0.1,0.2,0.2,0.4,0.4,0.5c0.2,0.1,0.4,0.2,0.7,0.2
			c0.4,0,0.9-0.1,1.6-0.4l0.3,3.1c-0.9,0.4-2,0.6-3.1,0.6c-0.7,0-1.4-0.1-1.9-0.4c-0.6-0.2-1-0.6-1.3-0.9c-0.3-0.4-0.5-0.9-0.6-1.5
			c-0.1-0.5-0.1-1.4-0.1-2.8v-6.5h-1.8v-3.2h1.8v-5.3h4v5.3H85.3z"/>
		<path class="st0" d="M100.4,26.5c-1.5-1.5-3.3-2.2-5.6-2.2c-1.5,0-2.8,0.3-4,1c-1.2,0.7-2.1,1.6-2.8,2.8c-0.7,1.2-1,2.5-1,3.8
			c0,1.7,0.3,3.2,1,4.4c0.6,1.2,1.6,2.1,2.8,2.7c1.2,0.6,2.6,0.9,3.9,0.9c2.2,0,4.1-0.8,5.5-2.2c1.5-1.5,2.2-3.4,2.2-5.7
			C102.6,29.9,101.9,28,100.4,26.5z M97.5,35.6c-0.7,0.8-1.6,1.2-2.6,1.2c-1,0-1.9-0.4-2.6-1.2c-0.7-0.8-1.1-1.9-1.1-3.4
			c0-1.5,0.4-2.6,1.1-3.4c0.7-0.8,1.6-1.2,2.6-1.2c1,0,1.9,0.4,2.6,1.2c0.7,0.8,1.1,1.9,1.1,3.4C98.5,33.6,98.2,34.8,97.5,35.6z"/>
		<polygon class="st0" points="119.1,39.7 115.1,39.7 115.1,30.7 112.2,28.6 109.4,30.9 109.4,39.7 105.4,39.7 105.4,24.6 
			109.1,24.6 109.1,26.8 112.4,24.5 119.1,29.6 		"/>
	</g>
</g>
</svg>
